<svg width="18" height="20" viewBox="0 0 18 20" fill="none" xmlns="http://www.w3.org/2000/svg">
<path d="M9.0288 4.96418e-05L9.28396 0.00474006C13.8598 0.15572 17.5155 3.93197 17.5 8.5527L17.4998 8.65503C17.4477 11.4113 16.0686 14.1253 13.7805 16.5473C12.6517 17.7231 11.3912 18.764 10.024 19.6493L10.034 19.642L9.98581 19.6828C9.4393 20.0755 8.71507 20.1036 8.14317 19.767L8.01404 19.6828L7.95372 19.6355L7.54027 19.3572C5.82311 18.1734 4.2938 16.7372 3.00692 15.1009L2.69028 14.6877C1.34207 12.9207 0.576609 10.7761 0.5 8.52631L0.504628 8.24141C0.655096 3.6514 4.41977 -0.0155586 9.0288 4.96418e-05ZM9.02366 1.51751L8.78345 1.52076C5.03532 1.63503 2.02559 4.71226 2.01275 8.49992L2.03184 8.85694C2.16175 10.6374 2.80718 12.3442 3.89636 13.7718C5.24857 15.5831 6.90797 17.1416 8.79867 18.376L8.88088 18.4381C8.94923 18.4974 9.05062 18.4974 9.11897 18.4381L9.20356 18.3745C10.4727 17.5526 11.6429 16.5863 12.6866 15.4992C14.7335 13.3325 15.9434 10.9515 15.9871 8.64066L15.9839 8.30916C15.87 4.54947 12.8022 1.53043 9.02366 1.51751ZM8.99993 5.40129C10.7883 5.40129 12.2381 6.85554 12.2381 8.64946C12.2381 10.4434 10.7883 11.8976 8.99993 11.8976C7.21154 11.8976 5.76176 10.4434 5.76176 8.64946C5.76176 6.85554 7.21154 5.40129 8.99993 5.40129ZM8.99993 6.91872C8.04701 6.91872 7.27451 7.69359 7.27451 8.64946C7.27451 9.60532 8.04701 10.3802 8.99993 10.3802C9.95285 10.3802 10.7253 9.60532 10.7253 8.64946C10.7253 7.69359 9.95285 6.91872 8.99993 6.91872Z" fill="white"/>
</svg>
