<svg width="16" height="18" viewBox="0 0 16 18" fill="none" xmlns="http://www.w3.org/2000/svg">
<path d="M11.4635 0.893587C11.8216 0.892746 12.1048 1.17096 12.1056 1.54192L12.1064 2.17423C14.43 2.35634 15.9649 3.93965 15.9674 6.36773L15.9766 13.4749C15.9799 16.1222 14.3167 17.751 11.6509 17.7553L5.1391 17.7637C2.48992 17.7671 0.80596 16.0994 0.802629 13.4446L0.793463 6.42084C0.790137 3.97674 2.27088 2.39765 4.59444 2.18435L4.59361 1.55204C4.59278 1.18108 4.86761 0.90202 5.23405 0.90202C5.60049 0.901177 5.87531 1.17939 5.87615 1.55035L5.87698 2.14051L10.8239 2.13376L10.8231 1.54361C10.8222 1.17265 11.0971 0.894432 11.4635 0.893587ZM11.8033 12.8645H11.795C11.4119 12.8738 11.1046 13.195 11.1129 13.5828C11.1137 13.9707 11.4227 14.2902 11.8058 14.2986C12.1964 14.2978 12.5129 13.9766 12.512 13.5803C12.512 13.1841 12.1947 12.8645 11.8033 12.8645ZM4.94089 12.8654C4.5578 12.8822 4.25798 13.2034 4.25882 13.5913C4.27631 13.9791 4.59278 14.2826 4.97587 14.2649C5.35147 14.248 5.65045 13.9268 5.63297 13.539C5.62464 13.1596 5.31566 12.8645 4.94089 12.8654ZM8.3721 12.8612C7.989 12.8789 7.69002 13.1992 7.69002 13.5871C7.70751 13.9749 8.02398 14.2775 8.40708 14.2607C8.78184 14.243 9.08166 13.9226 9.06417 13.5339C9.05584 13.1554 8.74687 12.8603 8.3721 12.8612ZM4.93673 9.83027C4.55363 9.84713 4.25465 10.1683 4.25548 10.5562C4.27214 10.944 4.58945 11.2475 4.97254 11.2298C5.34731 11.2129 5.64629 10.8917 5.6288 10.5039C5.62047 10.1245 5.31233 9.82943 4.93673 9.83027ZM8.36877 9.80076C7.98567 9.81763 7.68586 10.1388 7.68669 10.5267C7.70335 10.9145 8.02065 11.2171 8.40375 11.2003C8.77851 11.1826 9.07749 10.8622 9.06084 10.4744C9.05168 10.095 8.74354 9.79992 8.36877 9.80076ZM11.8 9.80498C11.4169 9.81341 11.1171 10.1254 11.1179 10.5132V10.5224C11.1262 10.9103 11.4427 11.2045 11.8266 11.1961C12.2014 11.1868 12.5004 10.8656 12.492 10.4778C12.4746 10.1068 12.1739 9.80414 11.8 9.80498ZM10.8256 3.43211L5.87865 3.43886L5.87948 4.12091C5.87948 4.48428 5.60548 4.77093 5.23904 4.77093C4.8726 4.77177 4.59694 4.48597 4.59694 4.1226L4.59611 3.47342C2.97212 3.63614 2.07351 4.59051 2.076 6.41916L2.07684 6.68136L14.6857 6.66449V6.36942C14.6499 4.55679 13.7404 3.60579 12.1081 3.46415L12.1089 4.11332C12.1089 4.47585 11.8266 4.76334 11.4685 4.76334C11.1021 4.76418 10.8264 4.47754 10.8264 4.11501L10.8256 3.43211Z" fill="white"/>
</svg>
